<svg width="250" height="32" viewBox="0 0 250 32" fill="none" xmlns="http://www.w3.org/2000/svg">
<path d="M0.578125 16.4162V11.9844L16.0043 5.5071V10.3544L5.8196 14.1577L5.9794 13.9233V14.4879L5.8196 14.2429L16.0043 18.0568V22.8935L0.578125 16.4162ZM230.884 0.159089L223.852 26.2812H219.41L226.441 0.159089H230.884ZM249.178 16.4162L233.752 22.8935V18.0568L243.937 14.2429L243.787 14.4879V13.9233L243.937 14.1577L233.752 10.3544V5.5071L249.178 11.9844V16.4162Z" fill="#00B0B0"/>
<path d="M33.6557 19.55H26.1557L25.0157 23H18.8357L26.5457 1.85H33.3257L41.0057 23H34.7957L33.6557 19.55ZM32.1857 15.05L29.9057 8.21L27.6557 15.05H32.1857ZM48.8022 0.8V23H42.9222V0.8H48.8022ZM70.2707 6.17L59.5907 31.01H53.2007L57.2207 22.28L50.3207 6.17H56.8607L60.4007 15.71L63.8207 6.17H70.2707ZM78.9789 23.21C77.4589 23.21 76.0989 22.96 74.8989 22.46C73.7189 21.94 72.7789 21.24 72.0789 20.36C71.3989 19.46 71.0189 18.45 70.9389 17.33H76.6389C76.7189 17.87 76.9689 18.29 77.3889 18.59C77.8089 18.89 78.3289 19.04 78.9489 19.04C79.4289 19.04 79.8089 18.94 80.0889 18.74C80.3689 18.54 80.5089 18.28 80.5089 17.96C80.5089 17.54 80.2789 17.23 79.8189 17.03C79.3589 16.83 78.5989 16.61 77.5389 16.37C76.3389 16.13 75.3389 15.86 74.5389 15.56C73.7389 15.26 73.0389 14.77 72.4389 14.09C71.8589 13.41 71.5689 12.49 71.5689 11.33C71.5689 10.33 71.8389 9.43 72.3789 8.63C72.9189 7.81 73.7089 7.16 74.7489 6.68C75.8089 6.2 77.0789 5.96 78.5589 5.96C80.7589 5.96 82.4889 6.5 83.7489 7.58C85.0089 8.66 85.7389 10.08 85.9389 11.84H80.6289C80.5289 11.3 80.2889 10.89 79.9089 10.61C79.5489 10.31 79.0589 10.16 78.4389 10.16C77.9589 10.16 77.5889 10.25 77.3289 10.43C77.0889 10.61 76.9689 10.86 76.9689 11.18C76.9689 11.58 77.1989 11.89 77.6589 12.11C78.1189 12.31 78.8589 12.52 79.8789 12.74C81.0989 13 82.1089 13.29 82.9089 13.61C83.7289 13.93 84.4389 14.45 85.0389 15.17C85.6589 15.87 85.9689 16.83 85.9689 18.05C85.9689 19.03 85.6789 19.91 85.0989 20.69C84.5389 21.47 83.7289 22.09 82.6689 22.55C81.6289 22.99 80.3989 23.21 78.9789 23.21ZM96.0297 23.21C94.5097 23.21 93.1497 22.96 91.9497 22.46C90.7697 21.94 89.8297 21.24 89.1297 20.36C88.4497 19.46 88.0697 18.45 87.9897 17.33H93.6897C93.7697 17.87 94.0197 18.29 94.4397 18.59C94.8597 18.89 95.3797 19.04 95.9997 19.04C96.4797 19.04 96.8597 18.94 97.1397 18.74C97.4197 18.54 97.5597 18.28 97.5597 17.96C97.5597 17.54 97.3297 17.23 96.8697 17.03C96.4097 16.83 95.6497 16.61 94.5897 16.37C93.3897 16.13 92.3897 15.86 91.5897 15.56C90.7897 15.26 90.0897 14.77 89.4897 14.09C88.9097 13.41 88.6197 12.49 88.6197 11.33C88.6197 10.33 88.8897 9.43 89.4297 8.63C89.9697 7.81 90.7597 7.16 91.7997 6.68C92.8597 6.2 94.1297 5.96 95.6097 5.96C97.8097 5.96 99.5397 6.5 100.8 7.58C102.06 8.66 102.79 10.08 102.99 11.84H97.6797C97.5797 11.3 97.3397 10.89 96.9597 10.61C96.5997 10.31 96.1097 10.16 95.4897 10.16C95.0097 10.16 94.6397 10.25 94.3797 10.43C94.1397 10.61 94.0197 10.86 94.0197 11.18C94.0197 11.58 94.2497 11.89 94.7097 12.11C95.1697 12.31 95.9097 12.52 96.9297 12.74C98.1497 13 99.1597 13.29 99.9597 13.61C100.78 13.93 101.49 14.45 102.09 15.17C102.71 15.87 103.02 16.83 103.02 18.05C103.02 19.03 102.73 19.91 102.15 20.69C101.59 21.47 100.78 22.09 99.7197 22.55C98.6797 22.99 97.4497 23.21 96.0297 23.21ZM113.74 23.21C112.06 23.21 110.55 22.86 109.21 22.16C107.89 21.46 106.85 20.46 106.09 19.16C105.33 17.86 104.95 16.33 104.95 14.57C104.95 12.83 105.33 11.31 106.09 10.01C106.87 8.71 107.92 7.71 109.24 7.01C110.58 6.31 112.09 5.96 113.77 5.96C115.45 5.96 116.95 6.31 118.27 7.01C119.61 7.71 120.66 8.71 121.42 10.01C122.2 11.31 122.59 12.83 122.59 14.57C122.59 16.31 122.2 17.84 121.42 19.16C120.66 20.46 119.61 21.46 118.27 22.16C116.93 22.86 115.42 23.21 113.74 23.21ZM113.74 18.11C114.56 18.11 115.24 17.81 115.78 17.21C116.34 16.59 116.62 15.71 116.62 14.57C116.62 13.43 116.34 12.56 115.78 11.96C115.24 11.36 114.57 11.06 113.77 11.06C112.97 11.06 112.3 11.36 111.76 11.96C111.22 12.56 110.95 13.43 110.95 14.57C110.95 15.73 111.21 16.61 111.73 17.21C112.25 17.81 112.92 18.11 113.74 18.11ZM135.993 6.02C137.933 6.02 139.473 6.67 140.613 7.97C141.753 9.25 142.323 10.99 142.323 13.19V23H136.443V13.97C136.443 13.01 136.193 12.26 135.693 11.72C135.193 11.16 134.523 10.88 133.683 10.88C132.803 10.88 132.113 11.16 131.613 11.72C131.113 12.26 130.863 13.01 130.863 13.97V23H124.983V6.17H130.863V8.57C131.383 7.81 132.083 7.2 132.963 6.74C133.843 6.26 134.853 6.02 135.993 6.02ZM151.504 23.5149C150.226 23.5149 149.131 23.0651 148.219 22.1655C147.32 21.2659 146.876 20.1768 146.888 18.8984C146.876 17.6437 147.32 16.5724 148.219 15.6847C149.131 14.785 150.226 14.3352 151.504 14.3352C152.711 14.3352 153.777 14.785 154.7 15.6847C155.635 16.5724 156.109 17.6437 156.121 18.8984C156.109 19.7507 155.884 20.526 155.446 21.2244C155.02 21.9228 154.457 22.4792 153.759 22.8935C153.073 23.3078 152.321 23.5149 151.504 23.5149ZM169.154 1.85C171.374 1.85 173.314 2.3 174.974 3.2C176.654 4.08 177.944 5.32 178.844 6.92C179.744 8.52 180.194 10.35 180.194 12.41C180.194 14.45 179.734 16.27 178.814 17.87C177.914 19.47 176.624 20.73 174.944 21.65C173.284 22.55 171.354 23 169.154 23H160.784V1.85H169.154ZM168.704 17.81C170.424 17.81 171.774 17.34 172.754 16.4C173.734 15.46 174.224 14.13 174.224 12.41C174.224 10.67 173.734 9.33 172.754 8.39C171.774 7.43 170.424 6.95 168.704 6.95H166.664V17.81H168.704ZM198.924 14.39C198.924 14.85 198.894 15.31 198.834 15.77H187.704C187.764 16.69 188.014 17.38 188.454 17.84C188.914 18.28 189.494 18.5 190.194 18.5C191.174 18.5 191.874 18.06 192.294 17.18H198.564C198.304 18.34 197.794 19.38 197.034 20.3C196.294 21.2 195.354 21.91 194.214 22.43C193.074 22.95 191.814 23.21 190.434 23.21C188.774 23.21 187.294 22.86 185.994 22.16C184.714 21.46 183.704 20.46 182.964 19.16C182.244 17.86 181.884 16.33 181.884 14.57C181.884 12.81 182.244 11.29 182.964 10.01C183.684 8.71 184.684 7.71 185.964 7.01C187.264 6.31 188.754 5.96 190.434 5.96C192.094 5.96 193.564 6.3 194.844 6.98C196.124 7.66 197.124 8.64 197.844 9.92C198.564 11.18 198.924 12.67 198.924 14.39ZM192.924 12.92C192.924 12.2 192.684 11.64 192.204 11.24C191.724 10.82 191.124 10.61 190.404 10.61C189.684 10.61 189.094 10.81 188.634 11.21C188.174 11.59 187.874 12.16 187.734 12.92H192.924ZM209.4 17.45L212.55 6.17H218.82L213.03 23H205.71L199.92 6.17H206.19L209.4 17.45Z" fill="#B0009F"/>
</svg>
